<svg xmlns="http://www.w3.org/2000/svg" width="31.5" height="27.525" viewBox="0 0 31.5 27.525">
  <g id="Benefits" transform="translate(-2.25 -3.457)">
    <path id="Pfad_14762" data-name="Pfad 14762" d="M20.179,13.548l1.4,2.809a.484.484,0,0,0,.361.264l3.126.451a.484.484,0,0,1,.318.185.464.464,0,0,1-.05.623L23.064,20.07a.464.464,0,0,0-.136.422l.543,3.092a.473.473,0,0,1-.393.537.527.527,0,0,1-.311-.047l-2.784-1.459a.467.467,0,0,0-.447,0L16.73,24.082a.49.49,0,0,1-.649-.2.474.474,0,0,1-.049-.3l.542-3.091a.472.472,0,0,0-.136-.423l-2.277-2.189a.474.474,0,0,1,0-.671h0a.54.54,0,0,1,.272-.133l3.127-.454a.491.491,0,0,0,.361-.264l1.395-2.807a.481.481,0,0,1,.277-.242.472.472,0,0,1,.367.028A.49.49,0,0,1,20.179,13.548Z" transform="translate(7.348 6.049)" fill="none" stroke="#ea9304" stroke-linecap="round" stroke-linejoin="round" stroke-width="1.5" fill-rule="evenodd"/>
    <path id="Pfad_14763" data-name="Pfad 14763" d="M33,16.024V11.151c0-4.069-2.535-6.944-6.608-6.944H9.608C5.546,4.207,3,7.082,3,11.151v10.98c0,4.07,2.535,6.944,6.608,6.944h6.931" fill="none" stroke="#ea9304" stroke-linecap="round" stroke-linejoin="round" stroke-width="1.5"/>
    <path id="Pfad_14764" data-name="Pfad 14764" d="M3,9.506H33" transform="translate(0 3.533)" fill="none" stroke="#ea9304" stroke-linecap="round" stroke-linejoin="round" stroke-width="1.5"/>
  </g>
</svg>
