<svg xmlns="http://www.w3.org/2000/svg" width="24" height="15.15" viewBox="0 0 24 15.15">
  <g id="Footer_Logo" data-name="Footer Logo" transform="translate(-960.851 -412.553)">
    <g id="Gruppe_5059" data-name="Gruppe 5059" transform="translate(-62.076 14.823)">
      <path id="Pfad_6913" data-name="Pfad 6913" d="M1242.87,241.034a3.152,3.152,0,1,0,3.164-3.164,3.151,3.151,0,0,0-3.164,3.164Z" transform="translate(-219.943 168.707)" fill="#f25" fill-rule="evenodd"/>
      <path id="Pfad_6914" data-name="Pfad 6914" d="M1249.174,215.814a3.152,3.152,0,1,0-3.139,3.139,3.151,3.151,0,0,0,3.139-3.139Z" transform="translate(-219.943 185.08)" fill="#f25" fill-rule="evenodd"/>
      <path id="Pfad_6915" data-name="Pfad 6915" d="M1268.1,215.814v8.847a3.152,3.152,0,0,0,6.3,0v-8.847a3.152,3.152,0,1,0-6.3,0Z" transform="translate(-236.323 185.08)" fill="#f25" fill-rule="evenodd"/>
      <path id="Pfad_6916" data-name="Pfad 6916" d="M1274.394,215.814a3.152,3.152,0,1,0-3.139,3.139,3.151,3.151,0,0,0,3.139-3.139Z" transform="translate(-236.316 185.08)" fill="#cd0052" fill-rule="evenodd"/>
      <path id="Pfad_6917" data-name="Pfad 6917" d="M1274.394,241.034a3.152,3.152,0,1,0-3.139,3.139,3.151,3.151,0,0,0,3.139-3.139Z" transform="translate(-236.316 168.707)" fill="#cd0052" fill-rule="evenodd"/>
      <path id="Pfad_6918" data-name="Pfad 6918" d="M1293.32,241.034a3.152,3.152,0,1,0,3.164-3.164,3.187,3.187,0,0,0-3.164,3.164Z" transform="translate(-252.696 168.707)" fill="#f25" fill-rule="evenodd"/>
    </g>
  </g>
</svg>
