<svg xmlns="http://www.w3.org/2000/svg" width="213" height="75.72" viewBox="0 0 213 75.72">
  <g id="Logo" transform="translate(-1373.953 -141)">
    <text id="crew_card" data-name="crew card" transform="translate(1430.818 163)" fill="#fff" font-size="21" font-family="ScriptoramaJF-Tradeshow, ScriptoramaJF"><tspan x="0" y="0">crew card</tspan></text>
    <g id="Logo_Eggental_" data-name="Logo Eggental " transform="translate(1373.953 156.609)">
      <path id="Pfad_14740" data-name="Pfad 14740" d="M132.2,333.263a26.6,26.6,0,1,0-26.6,26.6,26.6,26.6,0,0,0,26.6-26.6Zm-34.57-12.676a4.434,4.434,0,1,1-4.434-4.433,4.434,4.434,0,0,1,4.434,4.433Z" transform="translate(-79 -306.661)" fill="#ffa900"/>
      <path id="Pfad_14741" data-name="Pfad 14741" d="M145.644,342.472c0-2.957-1.724-6.269-4.5-8.643l-.264-.225-.345-.009c-.27-.007-.538-.011-.8-.011-15.02,0-16.187,11.22-16.187,14.659,0,6.52,3.169,13.537,10.128,13.537,6.532,0,9.086-1.847,9.24-1.951,0,0,.833-1.066,1.56-2.151-.408-2.061-.638-2.928-.781-3.477l-.412-1.159-1.035.656a13.7,13.7,0,0,1-6.521,1.859c-1.356,0-2.6-1.816-3.134-3.735,11.324-1.244,13.052-6.353,13.052-9.35Zm-8.061-.159c0,1.784-2.111,3.123-5.7,3.659-.005-.143-.007-.3-.007-.483,0-3.24,1.748-5.251,4.563-5.251.111,0,.226,0,.341.009a3.3,3.3,0,0,1,.808,2.066Zm31.143,3.089c0,2.966.261,6.3.47,8.977.145,1.847.269,3.915.269,4.908,0,7.006-4.7,10.591-13.975,10.656h-.007c-.968,0-1.542-.052-1.566-.054l-.545-.05-.245-.5a11.875,11.875,0,0,1-.887-4.569l.087-.98.965.075c.6.047,1.159.047,1.747.047,5.515-.226,6.6-1.7,6.6-4.157,0-.19-.006-1.334-.017-1.537a12.774,12.774,0,0,1-6.979,2.343c-3.275,0-6.939-4.536-6.939-10.608,0-7.831,5.259-15.76,15.31-15.76a13.032,13.032,0,0,1,5.618,1.16l.664.345-.149.742a57.885,57.885,0,0,0-.424,8.958Zm-7.641-4.543c-.123-.009-.252-.014-.382-.014-3.133,0-5.322,3.129-5.322,7.61,0,2.765,1.283,5.009,2.121,5.009a5.629,5.629,0,0,0,3.6-1.319c-.077-.843-.2-2.821-.2-6.892,0-1.452.108-3.3.182-4.394Zm33.029-4.415.149-.742-.663-.345a13.036,13.036,0,0,0-5.618-1.16c-10.051,0-15.31,7.929-15.31,15.76,0,6.071,3.664,10.608,6.94,10.608a12.772,12.772,0,0,0,6.978-2.343c.011.2.017,1.348.017,1.537,0,2.461-1.087,3.93-6.6,4.157-.588,0-1.144,0-1.747-.047l-.966-.075-.087.98a11.875,11.875,0,0,0,.887,4.569l.245.5.544.05c.024,0,.6.054,1.566.054h.007c9.273-.065,13.975-3.65,13.975-10.656,0-.993-.125-3.061-.269-4.908-.209-2.678-.469-6.011-.469-8.977a57.982,57.982,0,0,1,.423-8.958Zm-8.246,8.809c0,4.071.123,6.049.2,6.892a5.624,5.624,0,0,1-3.6,1.319c-.838,0-2.122-2.244-2.122-5.009,0-4.481,2.188-7.61,5.322-7.61.13,0,.259,0,.382.014-.074,1.1-.182,2.942-.182,4.394Zm19.939,6.291c.5,1.749,1.63,3.443,2.856,3.443a12.565,12.565,0,0,0,6.074-1.747l1.037-.667.413,1.174a10.307,10.307,0,0,1,.746,3.993l-.013.515-.421.287c-.145.1-3.618,2.422-9.755,2.422-6.561,0-9.549-6.666-9.549-12.858,0-3.266,1.1-13.92,15.225-13.92.247,0,.5,0,.752.01l.345.009.264.228a11.5,11.5,0,0,1,4.236,8.217c0,2.848-1.619,7.7-12.209,8.894Zm3.808-10.935c-.1-.005-.193-.007-.288-.007-2.6,0-4.212,1.878-4.212,4.9,0,.14,0,.267.005.382,3.246-.509,5.221-1.769,5.221-3.385a3.064,3.064,0,0,0-.726-1.891Zm79.892,18.742-.987-1.105c-.016-.019-1.666-2.212-1.666-9.89v-7.507a15.7,15.7,0,0,0-.716-5.54l-.165-.4-.4-.151a13.478,13.478,0,0,0-4.429-.562c-10.051,0-15.31,7.929-15.31,15.761,0,6.2,3.7,11.007,6.889,11.007,2.675,0,5.617-1.847,7.32-3.186a7.935,7.935,0,0,0,1.389,2.888l.313.372.481-.024a22.946,22.946,0,0,0,5.9-1.159l1.383-.5Zm-10.27-7.481a7.614,7.614,0,0,1-3.9,1.644c-.735,0-1.826-2.124-1.826-5.058,0-4.481,2.188-7.61,5.321-7.61.069,0,.131,0,.188,0a17.654,17.654,0,0,1,.112,2.152v5.5c0,1.682.061,2.778.106,3.365Zm-42.424,9.108-.3-.328c-.189-.2-1.842-2.123-1.842-6.739,0-1.107.09-2.508.185-3.991.1-1.592.208-3.237.208-4.617a6.659,6.659,0,0,0-.953-3.911c-2.352.054-4.067,1.217-4.606,3.133a11.679,11.679,0,0,0-.159,2.329v13.71h-7.725V343.7c0-5.252-.918-6.851-.927-6.866l-.634-1.063,1.144-.423a23.189,23.189,0,0,1,6.043-1.152l.536-.019.305.447a7.177,7.177,0,0,1,.933,2.44,15.335,15.335,0,0,1,9.535-2.868l.4.019.272.293c2.334,2.516,3.517,6.249,3.517,11.094,0,.824-.073,2.033-.15,3.312-.091,1.514-.194,3.23-.194,4.6a8.324,8.324,0,0,0,1.256,4.874l.9,1.137-1.363.445a24.3,24.3,0,0,1-5.925,1l-.442.015Zm63.133,0a21.99,21.99,0,0,1-5.123-.5l-.237-.077-.173-.183c-.217-.23-2.121-2.429-2.121-8.692v-9.246a14.407,14.407,0,0,0-1.009-5.571l-.519-.984,1.02-.414a21.6,21.6,0,0,1,6.08-1.092l.425-.015.3.307c.161.163,1.573,1.729,1.573,6.217v9.613a11.951,11.951,0,0,0,.436,3.794c.1,0,.216,0,.35,0a18.893,18.893,0,0,0,6.114-1.077l.993-.388.3,1.038a8.37,8.37,0,0,1,.321,2.322,17.793,17.793,0,0,1-.3,2.91l-.076.392-.321.23c-.949.68-4.4,1.407-8.034,1.407Zm-49.106-.721a18.117,18.117,0,0,1-1.886-8.864c0-2.636.59-5.75.59-8.206l-3.421.452a8.006,8.006,0,0,1-.47-2.575,7.716,7.716,0,0,1,.472-2.7l3.36-.633a10.286,10.286,0,0,0-.649-3.414c2.593-1.258,7.36-1.438,7.36-1.438a11.675,11.675,0,0,1,.721,3.714l6.065-1.2a6.747,6.747,0,0,1,.531,3.056,10.832,10.832,0,0,1-.354,3.055l-6.242.9c0,2.4-.543,4.912-.543,7.427a11.249,11.249,0,0,0,.707,4.5,3.059,3.059,0,0,0,.766.06,14.7,14.7,0,0,0,5.311-1.532,11.56,11.56,0,0,1,.855,3.868,12.292,12.292,0,0,1-.129,2.142,20.156,20.156,0,0,1-8.8,2.161,11.136,11.136,0,0,1-4.243-.779Z" transform="translate(-95.677 -316.477)" fill="#fff"/>
      <g id="Gruppe_4306" data-name="Gruppe 4306" transform="translate(101.983 49.533)">
        <path id="Pfad_14742" data-name="Pfad 14742" d="M247.755,393.62l-.52-.836a2.514,2.514,0,0,1-1.657.561c-1.551,0-2.3-1.259-2.3-2.7a2.334,2.334,0,0,1,2.273-2.6,2.643,2.643,0,0,1,1.529.434l.563-.878a3.551,3.551,0,0,0-2.06-.55,3.65,3.65,0,1,0,2.177,6.569Z" transform="translate(-242.01 -386.29)" fill="#fff"/>
        <path id="Pfad_14743" data-name="Pfad 14743" d="M258.613,394.3l-2.751-7.045H254.7l-2.7,7.045h1.2l.552-1.513h2.995l.552,1.513Zm-2.22-2.486H254.1l.733-2.01c.212-.582.286-.836.4-1.217h.021c.116.37.191.624.4,1.217l.733,2.01Z" transform="translate(-245.753 -386.366)" fill="#fff"/>
        <path id="Pfad_14744" data-name="Pfad 14744" d="M269,389.211c0-1.259-.913-1.957-2.5-1.957h-2.156V394.3h1.2v-3.057h.1c.4,0,.531.074,1.2,1.058l1.349,2h1.349l-1.551-2.243a3.97,3.97,0,0,0-.786-.952v-.021A1.836,1.836,0,0,0,269,389.211Zm-1.2.053c0,.7-.414,1.089-1.328,1.089h-.924V388.2h.86c.956,0,1.391.37,1.391,1.069Z" transform="translate(-250.373 -386.366)" fill="#fff"/>
        <path id="Pfad_14745" data-name="Pfad 14745" d="M278.415,394.3v-.994h-2.761v-2.222h2.368v-.952h-2.368v-1.883h2.687v-.994h-3.876V394.3Z" transform="translate(-254.16 -386.366)" fill="#fff"/>
        <path id="Pfad_14746" data-name="Pfad 14746" d="M287.543,394.3v-.973h-3.664l3.557-5.31v-.761h-4.8v.973h3.356l-3.515,5.279v.793Z" transform="translate(-257.16 -386.366)" fill="#fff"/>
        <path id="Pfad_14747" data-name="Pfad 14747" d="M297.354,394.3v-.973H293.69l3.557-5.31v-.761h-4.8v.973H295.8l-3.515,5.279v.793Z" transform="translate(-260.833 -386.366)" fill="#fff"/>
        <path id="Pfad_14748" data-name="Pfad 14748" d="M308.18,394.3l-2.751-7.045h-1.157l-2.7,7.045h1.2l.552-1.513h2.995l.552,1.513Zm-2.22-2.486h-2.294l.733-2.01c.212-.582.286-.836.4-1.217h.021c.116.37.191.624.4,1.217l.733,2.01Z" transform="translate(-264.309 -386.366)" fill="#fff"/>
        <path id="Pfad_14749" data-name="Pfad 14749" d="M318.548,396.412V385.834h-.967v10.578Z" transform="translate(-270.302 -385.834)" fill="#fff"/>
        <path id="Pfad_14750" data-name="Pfad 14750" d="M332.255,390.68a3.569,3.569,0,1,0-3.547,3.67,3.463,3.463,0,0,0,3.547-3.67Zm-1.264.031c0,1.428-.764,2.666-2.315,2.666-1.53,0-2.294-1.259-2.294-2.7a2.366,2.366,0,0,1,2.326-2.655c1.54,0,2.283,1.248,2.283,2.686Z" transform="translate(-273.124 -386.29)" fill="#fff"/>
        <path id="Pfad_14751" data-name="Pfad 14751" d="M343.358,389.01c0-1.3-1.073-1.756-2.389-1.756h-2.135V394.3h2.1c1.6,0,2.718-.529,2.718-1.968a1.7,1.7,0,0,0-1.561-1.714V390.6a1.526,1.526,0,0,0,1.264-1.587Zm-3.345,2.095h.945c1.062,0,1.476.423,1.476,1.164,0,.772-.51,1.089-1.54,1.089h-.882V391.1Zm2.145-1.936c0,.709-.4,1.037-1.328,1.037h-.818V388.2h.839c.86,0,1.306.3,1.306.973Z" transform="translate(-278.258 -386.366)" fill="#fff"/>
        <path id="Pfad_14752" data-name="Pfad 14752" d="M352.884,394.3v-.994h-2.761v-2.222h2.368v-.952h-2.368v-1.883h2.686v-.994h-3.876V394.3Z" transform="translate(-282.039 -386.366)" fill="#fff"/>
        <path id="Pfad_14753" data-name="Pfad 14753" d="M362.327,389.211c0-1.259-.913-1.957-2.5-1.957h-2.155V394.3h1.2v-3.057h.1c.4,0,.531.074,1.2,1.058l1.348,2h1.349l-1.55-2.243a3.988,3.988,0,0,0-.786-.952v-.021a1.835,1.835,0,0,0,1.794-1.872Zm-1.2.053c0,.7-.414,1.089-1.328,1.089h-.923V388.2h.86c.955,0,1.391.37,1.391,1.069Z" transform="translate(-285.312 -386.366)" fill="#fff"/>
        <path id="Pfad_14754" data-name="Pfad 14754" d="M371.743,394.3v-.994h-2.761v-2.222h2.368v-.952h-2.368v-1.883h2.686v-.994h-3.876V394.3Z" transform="translate(-289.1 -386.366)" fill="#fff"/>
        <path id="Pfad_14755" data-name="Pfad 14755" d="M382.082,393.652v-3.237h-2.57v.952h1.4v1.65a2.79,2.79,0,0,1-1.465.349c-1.646,0-2.379-1.28-2.379-2.718a2.344,2.344,0,0,1,2.432-2.6,2.692,2.692,0,0,1,1.741.54l.563-.889a3.645,3.645,0,0,0-2.283-.645,3.65,3.65,0,1,0-.085,7.3,4.306,4.306,0,0,0,2.644-.7Z" transform="translate(-292.099 -386.29)" fill="#fff"/>
        <path id="Pfad_14756" data-name="Pfad 14756" d="M394.117,393.652v-3.237h-2.57v.952h1.4v1.65a2.79,2.79,0,0,1-1.465.349c-1.646,0-2.379-1.28-2.379-2.718a2.344,2.344,0,0,1,2.432-2.6,2.7,2.7,0,0,1,1.742.54l.562-.889a3.644,3.644,0,0,0-2.283-.645,3.65,3.65,0,1,0-.085,7.3,4.306,4.306,0,0,0,2.644-.7Z" transform="translate(-296.605 -386.29)" fill="#fff"/>
        <path id="Pfad_14757" data-name="Pfad 14757" d="M404.522,394.3v-.994h-2.761v-2.222h2.368v-.952h-2.368v-1.883h2.687v-.994h-3.876V394.3Z" transform="translate(-301.371 -386.366)" fill="#fff"/>
        <path id="Pfad_14758" data-name="Pfad 14758" d="M415.163,394.3v-7.045h-1.094v4.231c0,.54.043.995.043,1.037h-.021c-.021-.031-.329-.571-.711-1.121l-2.9-4.147h-1.2V394.3h1.094v-4.538c0-.4-.043-.836-.043-.856h.021c.011.021.3.518.627.983l3.08,4.411Z" transform="translate(-304.632 -386.366)" fill="#fff"/>
      </g>
    </g>
  </g>
</svg>
